<?xml version="1.0" standalone="no"?><!DOCTYPE svg PUBLIC "-//W3C//DTD SVG 1.1//EN" "http://www.w3.org/Graphics/SVG/1.1/DTD/svg11.dtd"><svg t="1656419616209" class="icon" viewBox="0 0 1024 1024" version="1.1" xmlns="http://www.w3.org/2000/svg" p-id="3505" xmlns:xlink="http://www.w3.org/1999/xlink" width="200" height="200"><defs><style type="text/css"></style></defs><path d="M864 64H608a32 32 0 0 0-32 32v480a64 64 0 0 1-128 0v-96a32 32 0 0 0-32-32H160a32 32 0 0 0-32 32v128a351.72 351.72 0 0 0 352 352h64a351.72 351.72 0 0 0 352-352V96a32 32 0 0 0-32-32z m-224 64h64v368a144.1 144.1 0 0 1-72.06 124.71A127.35 127.35 0 0 0 640 576zM512 704h48c114.69 0 208-93.31 208-208V128h64v384c0 141.16-114.84 256-256 256a128.17 128.17 0 0 1-116.66-75.34A127.3 127.3 0 0 0 512 704z m-320-96v-96h64v160a285.9 285.9 0 0 0 54.53 168.71C238.74 788.28 192 703.5 192 608z m352 288c-123.51 0-224-100.49-224-224V512h64v128c0 105.87 86.13 192 192 192a317.84 317.84 0 0 0 223.29-90.81C751.13 833.12 654.78 896 544 896z" fill="#5C5C66" p-id="3506"></path></svg>