<svg width="1" height="1" viewBox="0 0 1 1" fill="none" xmlns="http://www.w3.org/2000/svg">
<path fill-rule="evenodd" clip-rule="evenodd" d="M0.950876 0.000623846L0.0445283 0.159983C0.0261512 0.16322 0.0119866 0.178711 0.00968745 0.198112L0.000330053 0.277202C-0.00314279 0.306532 0.0213119 0.331092 0.0491268 0.326203L0.226258 0.29507V0.952735C0.226258 0.987998 0.263719 1.00905 0.291727 0.989532L0.357599 0.943599C0.37387 0.932271 0.383645 0.913139 0.383645 0.892642V0.267392L0.625892 0.224796L0.62586 0.687063C0.62586 0.715331 0.632451 0.743178 0.645073 0.768159L0.753278 0.980042C0.7595 0.992313 0.771671 1 0.784919 1L0.876789 0.999949C0.903526 0.999932 0.920794 0.970299 0.908623 0.945352L0.801431 0.727636C0.789501 0.703194 0.783295 0.67614 0.783295 0.648681V0.197135L0.955506 0.166844C0.9739 0.163607 0.988064 0.1481 0.990364 0.128698L0.999673 0.0496083C1.00313 0.0202784 0.978675 -0.00426448 0.950876 0.000623846Z" fill="white"/>
</svg>
