<?xml version="1.0" standalone="no"?><!DOCTYPE svg PUBLIC "-//W3C//DTD SVG 1.1//EN" "http://www.w3.org/Graphics/SVG/1.1/DTD/svg11.dtd"><svg t="1656495076951" class="icon" viewBox="0 0 1024 1024" version="1.1" xmlns="http://www.w3.org/2000/svg" p-id="2203" xmlns:xlink="http://www.w3.org/1999/xlink" width="200" height="200"><defs><style type="text/css"></style></defs><path d="M628.004571 710.838857v120.576c0 25.709714-7.424 38.290286-22.272 38.290286-8.557714 0-17.152-3.986286-25.709714-12.580572v-171.995428c8.557714-8.557714 17.152-12.580571 25.709714-12.580572 14.848 0 22.272 13.129143 22.272 38.290286z m193.133715 0.585143v26.294857h-51.419429v-26.294857c0-25.709714 8.557714-38.838857 25.709714-38.838857s25.709714 13.129143 25.709715 38.838857zM269.129143 586.861714h61.147428v-53.723428H151.990857v53.723428h60.013714v325.156572H269.165714v-325.156572z m164.571428 325.156572h50.870858v-282.294857H433.700571v215.990857c-11.446857 16.018286-22.272 23.990857-32.585142 23.990857-6.838857 0-10.861714-3.986286-11.995429-11.995429-0.585143-1.718857-0.585143-8.009143-0.585143-20.004571v-208.018286H337.664v223.414857c0 20.004571 1.718857 33.133714 4.571429 41.728 4.571429 14.299429 16.566857 21.138286 33.133714 21.138286 18.285714 0 37.705143-11.446857 58.294857-34.852571v30.866285z m245.138286-84.589715v-112.566857c0-26.294857-1.133714-45.129143-5.156571-56.576-6.290286-21.138286-20.553143-32-40.557715-32-18.870857 0-36.571429 10.276571-53.138285 30.866286v-124.013714h-50.870857v378.843428h50.870857v-27.428571c17.152 21.138286 34.852571 31.414857 53.138285 31.414857 20.004571 0 34.304-10.861714 40.557715-31.414857 3.986286-11.995429 5.156571-30.866286 5.156571-57.161143z m193.170286-5.705142v-7.424h-52.004572c0 20.553143-0.585143 32-1.133714 34.852571-2.852571 13.714286-10.276571 20.553143-22.857143 20.553143-17.700571 0-26.294857-13.129143-26.294857-39.424v-49.700572h102.290286v-58.843428c0-30.281143-5.156571-52.004571-15.433143-66.304-14.848-19.419429-34.852571-29.147429-60.562286-29.147429-26.294857 0-46.299429 9.728-61.147428 29.147429-10.861714 14.299429-16.018286 35.986286-16.018286 66.304v98.852571c0 30.281143 5.705143 52.553143 16.566857 66.304 14.848 19.419429 34.852571 29.147429 61.696 29.147429s48.018286-10.276571 61.696-30.281143a65.828571 65.828571 0 0 0 11.995429-30.866286c1.133714-5.156571 1.133714-16.566857 1.133714-33.133714z m-347.428572-521.728V180.004571c0-26.294857-7.424-39.424-24.576-39.424-16.566857 0-24.576 13.129143-24.576 39.424v119.990858c0 26.294857 8.009143 40.009143 24.576 40.009142 17.152 0 24.576-13.714286 24.576-40.009142z m410.843429 429.165714c0 65.718857-0.585143 136.009143-14.848 200.009143-10.861714 45.129143-47.433143 78.299429-91.428571 82.870857-105.142857 11.995429-211.419429 11.995429-317.147429 11.995428s-212.004571 0-317.147429-11.995428c-43.995429-4.571429-81.152-37.705143-91.428571-82.870857-14.848-64-14.848-134.290286-14.848-200.009143 0-66.304 0.585143-136.009143 14.848-200.009143 10.861714-45.129143 47.433143-78.299429 92.013714-83.419429 104.557714-11.446857 210.870857-11.446857 316.562286-11.446857s212.004571 0 317.147429 11.446857c43.995429 5.156571 81.152 38.290286 91.428571 83.419429 14.848 64 14.848 133.705143 14.848 200.009143zM365.129143 0h58.294857L354.267429 227.986286v154.843428H297.106286V227.986286c-5.156571-28.013714-16.566857-67.986286-34.852572-121.161143-12.580571-35.437714-25.161143-71.424-37.156571-106.861714h60.562286L326.217143 150.235429z m211.456 190.281143v99.986286c0 30.281143-5.156571 53.138286-16.018286 67.437714-14.299429 19.419429-34.304 29.147429-60.562286 29.147428-25.709714 0-45.714286-9.728-60.013714-29.147428-10.861714-14.848-16.018286-37.156571-16.018286-67.437714V190.281143c0-30.281143 5.156571-52.553143 16.018286-66.852572 14.299429-19.419429 34.304-29.147429 60.013714-29.147428 26.294857 0 46.299429 9.728 60.562286 29.147428 10.861714 14.299429 16.018286 36.571429 16.018286 66.852572zM768 97.718857v285.147429h-52.004571V351.451429c-20.553143 23.990857-40.009143 35.437714-58.843429 35.437714-16.566857 0-28.562286-6.838857-33.718857-21.138286-2.852571-8.557714-4.571429-22.272-4.571429-42.861714V97.755429h52.004572v209.700571c0 11.995429 0 18.870857 0.585143 20.004571 1.133714 8.009143 5.156571 12.580571 11.995428 12.580572 10.276571 0 21.138286-8.009143 32.585143-24.576V97.755429h52.004571z" fill="" p-id="2204"></path></svg>