<?xml version="1.0" standalone="no"?><!DOCTYPE svg PUBLIC "-//W3C//DTD SVG 1.1//EN" "http://www.w3.org/Graphics/SVG/1.1/DTD/svg11.dtd"><svg t="1656403011038" class="icon" viewBox="0 0 1024 1024" version="1.1" xmlns="http://www.w3.org/2000/svg" p-id="8020" xmlns:xlink="http://www.w3.org/1999/xlink" width="200" height="200"><defs><style type="text/css"></style></defs><path d="M864 858.56l51.36 9.056 105.6-598.752L201.536 124.384 172.736 288H864v570.56z" p-id="8021"></path><path d="M212.448 478.72L27.264 320h777.472l-185.184 158.72a115.296 115.296 0 0 0-176.416-16.192l-27.136 27.168-27.136-27.136a115.328 115.328 0 0 0-176.416 16.192z m-14.528 29.344l-0.16 0.224L0 338.784V910.72l284-227.2-58.048-58.048a115.264 115.264 0 0 1-28.032-117.408z m108.832 198.208L29.632 928h772.768l-277.152-221.728L416 815.52l-109.248-109.248z m241.28-22.752L832 910.72V338.784l-197.76 169.504-0.192-0.224a115.36 115.36 0 0 1-28 117.408l-58.048 58.048z" p-id="8022"></path></svg>